<mxfile host="Electron" modified="2023-10-23T20:50:42.832Z" agent="Mozilla/5.0 (Macintosh; Intel Mac OS X 10_15_7) AppleWebKit/537.36 (KHTML, like Gecko) draw.io/22.0.2 Chrome/114.0.5735.289 Electron/25.8.4 Safari/537.36" etag="YrIuSk9hAra0adC20Kls" version="22.0.2" type="device">
  <diagram name="Side-1" id="L13B_8dKzI9h2fTyULZp">
    <mxGraphModel dx="3896" dy="1787" grid="1" gridSize="10" guides="1" tooltips="1" connect="1" arrows="1" fold="1" page="1" pageScale="1" pageWidth="827" pageHeight="1169" math="0" shadow="0">
      <root>
        <mxCell id="0" />
        <mxCell id="1" parent="0" />
        <mxCell id="ih5rEid3sKnyZheTFn35-23" value="" style="swimlane;startSize=0;swimlaneFillColor=default;fillColor=default;fontStyle=1;fontFamily=Avenir Next;" parent="1" vertex="1">
          <mxGeometry x="-800" y="79.37" width="2160" height="1000.63" as="geometry" />
        </mxCell>
        <mxCell id="XlXk4Z8fD7IuHDMqEPiC-4" value="Router&lt;br&gt;10.0.0.1" style="sketch=0;outlineConnect=0;fontColor=#FFFFFF;fillColor=#f5f5f5;strokeColor=#666666;dashed=0;verticalLabelPosition=middle;verticalAlign=middle;align=left;html=1;fontSize=9;fontStyle=1;aspect=fixed;pointerEvents=1;shape=mxgraph.aws4.router;labelPosition=right;fontFamily=Avenir Next;" parent="ih5rEid3sKnyZheTFn35-23" vertex="1">
          <mxGeometry x="1336.27" y="407.75" width="109.37" height="109.37" as="geometry" />
        </mxCell>
        <mxCell id="XlXk4Z8fD7IuHDMqEPiC-19" value="" style="html=1;strokeWidth=1;shadow=0;dashed=0;shape=mxgraph.ios7.misc.wifi;buttonText=;strokeColor2=#222222;fontSize=9;verticalLabelPosition=middle;verticalAlign=middle;align=left;sketch=0;fillColor=none;fontColor=#FFFFFF;strokeColor=default;fontStyle=1;aspect=fixed;labelPosition=right;fontFamily=Avenir Next;" parent="ih5rEid3sKnyZheTFn35-23" vertex="1">
          <mxGeometry x="1374.71" y="571.63" width="32.49" height="32.49" as="geometry" />
        </mxCell>
        <mxCell id="XlXk4Z8fD7IuHDMqEPiC-29" value="" style="html=1;strokeWidth=1;shadow=0;dashed=0;shape=mxgraph.ios7.misc.wifi;buttonText=;strokeColor2=#222222;fontSize=9;verticalLabelPosition=middle;verticalAlign=middle;align=left;sketch=0;fillColor=none;fontColor=#FFFFFF;strokeColor=default;fontStyle=1;aspect=fixed;labelPosition=right;fontFamily=Avenir Next;" parent="ih5rEid3sKnyZheTFn35-23" vertex="1">
          <mxGeometry x="1635.71" y="484.63" width="32.49" height="32.49" as="geometry" />
        </mxCell>
        <mxCell id="XlXk4Z8fD7IuHDMqEPiC-31" value="" style="html=1;strokeWidth=1;shadow=0;dashed=0;shape=mxgraph.ios7.misc.wifi;buttonText=;strokeColor2=#222222;fontSize=9;verticalLabelPosition=middle;verticalAlign=middle;align=left;sketch=0;fillColor=none;fontColor=#FFFFFF;strokeColor=default;fontStyle=1;aspect=fixed;labelPosition=right;fontFamily=Avenir Next;" parent="ih5rEid3sKnyZheTFn35-23" vertex="1">
          <mxGeometry x="1115.71" y="484.63" width="32.49" height="32.49" as="geometry" />
        </mxCell>
        <mxCell id="XlXk4Z8fD7IuHDMqEPiC-32" value="" style="html=1;strokeWidth=1;shadow=0;dashed=0;shape=mxgraph.ios7.misc.wifi;buttonText=;strokeColor2=#222222;fontSize=9;verticalLabelPosition=middle;verticalAlign=middle;align=left;sketch=0;fillColor=none;fontColor=#FFFFFF;strokeColor=default;fontStyle=1;aspect=fixed;labelPosition=right;fontFamily=Avenir Next;" parent="ih5rEid3sKnyZheTFn35-23" vertex="1">
          <mxGeometry x="1374.71" y="365.58" width="32.49" height="32.49" as="geometry" />
        </mxCell>
        <mxCell id="XlXk4Z8fD7IuHDMqEPiC-34" value="" style="html=1;strokeWidth=1;shadow=0;dashed=0;shape=mxgraph.ios7.misc.wifi;buttonText=;strokeColor2=#222222;fontSize=9;verticalLabelPosition=middle;verticalAlign=middle;align=left;sketch=0;fillColor=none;fontColor=#FFFFFF;strokeColor=default;fontStyle=1;aspect=fixed;labelPosition=right;fontFamily=Avenir Next;" parent="ih5rEid3sKnyZheTFn35-23" vertex="1">
          <mxGeometry x="1634.71" y="294.63" width="32.49" height="32.49" as="geometry" />
        </mxCell>
        <mxCell id="XlXk4Z8fD7IuHDMqEPiC-36" value="" style="html=1;strokeWidth=1;shadow=0;dashed=0;shape=mxgraph.ios7.misc.wifi;buttonText=;strokeColor2=#222222;fontSize=9;verticalLabelPosition=middle;verticalAlign=middle;align=left;sketch=0;fillColor=none;fontColor=#FFFFFF;strokeColor=default;fontStyle=1;aspect=fixed;labelPosition=right;fontFamily=Avenir Next;" parent="ih5rEid3sKnyZheTFn35-23" vertex="1">
          <mxGeometry x="1114.71" y="294.63" width="32.49" height="32.49" as="geometry" />
        </mxCell>
        <mxCell id="dvcvGLp8Y9k0lAspq7m1-2" value="Laptop&lt;br style=&quot;text-align: left; color: rgb(255, 255, 255); font-size: 9px;&quot;&gt;&lt;span style=&quot;text-align: left; color: rgb(255, 255, 255); font-size: 9px;&quot;&gt;Server&lt;/span&gt;&lt;br style=&quot;text-align: left; color: rgb(255, 255, 255); font-size: 9px;&quot;&gt;&lt;span style=&quot;text-align: left; color: rgb(255, 255, 255); font-size: 9px;&quot;&gt;10.0.0.100&lt;/span&gt;" style="shadow=0;dashed=0;html=1;labelPosition=right;verticalLabelPosition=middle;verticalAlign=middle;align=left;outlineConnect=0;shape=mxgraph.veeam.vm_linux;aspect=fixed;strokeColor=default;fontFamily=Avenir Next;fontStyle=1" vertex="1" parent="ih5rEid3sKnyZheTFn35-23">
          <mxGeometry x="1080" y="527.4599999999999" width="126.98" height="122.54" as="geometry" />
        </mxCell>
        <mxCell id="dvcvGLp8Y9k0lAspq7m1-3" value="Laptop&lt;br style=&quot;text-align: left; color: rgb(255, 255, 255); font-size: 9px;&quot;&gt;&lt;span style=&quot;text-align: left; color: rgb(255, 255, 255); font-size: 9px;&quot;&gt;Server&lt;/span&gt;&lt;br style=&quot;text-align: left; color: rgb(255, 255, 255); font-size: 9px;&quot;&gt;&lt;span style=&quot;text-align: left; color: rgb(255, 255, 255); font-size: 9px;&quot;&gt;10.0.0.100&lt;/span&gt;" style="shadow=0;dashed=0;html=1;labelPosition=right;verticalLabelPosition=middle;verticalAlign=middle;align=left;outlineConnect=0;shape=mxgraph.veeam.vm_linux;aspect=fixed;strokeColor=default;fontFamily=Avenir Next;fontStyle=1" vertex="1" parent="ih5rEid3sKnyZheTFn35-23">
          <mxGeometry x="1340" y="614.4599999999999" width="126.98" height="122.54" as="geometry" />
        </mxCell>
        <mxCell id="dvcvGLp8Y9k0lAspq7m1-5" value="Laptop&lt;br style=&quot;text-align: left; color: rgb(255, 255, 255); font-size: 9px;&quot;&gt;&lt;span style=&quot;text-align: left; color: rgb(255, 255, 255); font-size: 9px;&quot;&gt;Server&lt;/span&gt;&lt;br style=&quot;text-align: left; color: rgb(255, 255, 255); font-size: 9px;&quot;&gt;&lt;span style=&quot;text-align: left; color: rgb(255, 255, 255); font-size: 9px;&quot;&gt;10.0.0.100&lt;/span&gt;" style="shadow=0;dashed=0;html=1;labelPosition=right;verticalLabelPosition=middle;verticalAlign=middle;align=left;outlineConnect=0;shape=mxgraph.veeam.vm_linux;aspect=fixed;strokeColor=default;fontStyle=1;fontFamily=Avenir Next;" vertex="1" parent="ih5rEid3sKnyZheTFn35-23">
          <mxGeometry x="1600" y="527.4599999999999" width="126.98" height="122.54" as="geometry" />
        </mxCell>
        <mxCell id="dvcvGLp8Y9k0lAspq7m1-6" value="Laptop&lt;br style=&quot;text-align: left; color: rgb(255, 255, 255); font-size: 9px;&quot;&gt;&lt;span style=&quot;text-align: left; color: rgb(255, 255, 255); font-size: 9px;&quot;&gt;Server&lt;/span&gt;&lt;br style=&quot;text-align: left; color: rgb(255, 255, 255); font-size: 9px;&quot;&gt;&lt;span style=&quot;text-align: left; color: rgb(255, 255, 255); font-size: 9px;&quot;&gt;10.0.0.100&lt;/span&gt;" style="shadow=0;dashed=0;html=1;labelPosition=right;verticalLabelPosition=middle;verticalAlign=middle;align=left;outlineConnect=0;shape=mxgraph.veeam.vm_linux;aspect=fixed;strokeColor=default;fontStyle=1;fontFamily=Avenir Next;" vertex="1" parent="ih5rEid3sKnyZheTFn35-23">
          <mxGeometry x="1600" y="337.4599999999999" width="126.98" height="122.54" as="geometry" />
        </mxCell>
        <mxCell id="ih5rEid3sKnyZheTFn35-21" value="ID 6" style="text;html=1;align=center;verticalAlign=middle;whiteSpace=wrap;rounded=0;fontSize=60;fontFamily=Avenir Next;fontStyle=1;" parent="1" vertex="1">
          <mxGeometry x="-860" y="600" width="430" height="30" as="geometry" />
        </mxCell>
        <mxCell id="ih5rEid3sKnyZheTFn35-22" value="Studiegrupp 6" style="text;html=1;align=center;verticalAlign=middle;whiteSpace=wrap;rounded=0;fontSize=33;fontFamily=Avenir Next;fontStyle=1;" parent="1" vertex="1">
          <mxGeometry x="-790" y="540" width="410" height="30" as="geometry" />
        </mxCell>
        <mxCell id="dvcvGLp8Y9k0lAspq7m1-1" value="Laptop&lt;br style=&quot;color: rgb(255, 255, 255); font-size: 9px; text-align: left;&quot;&gt;&lt;span style=&quot;color: rgb(255, 255, 255); font-size: 9px; text-align: left;&quot;&gt;Server&lt;/span&gt;&lt;br style=&quot;color: rgb(255, 255, 255); font-size: 9px; text-align: left;&quot;&gt;&lt;span style=&quot;color: rgb(255, 255, 255); font-size: 9px; text-align: left;&quot;&gt;10.0.0.100&lt;/span&gt;" style="shadow=0;dashed=0;html=1;labelPosition=right;verticalLabelPosition=middle;verticalAlign=middle;align=left;outlineConnect=0;shape=mxgraph.veeam.vm_linux;aspect=fixed;strokeColor=default;fontFamily=Avenir Next;fontStyle=1" vertex="1" parent="1">
          <mxGeometry x="280" y="416.83" width="126.98" height="122.54" as="geometry" />
        </mxCell>
      </root>
    </mxGraphModel>
  </diagram>
</mxfile>
